<svg version="1.1" viewBox="0.0 0.0 352.54330708661416 226.71653543307087" fill="none" stroke="none" stroke-linecap="square" stroke-miterlimit="10" xmlns:xlink="http://www.w3.org/1999/xlink" xmlns="http://www.w3.org/2000/svg"><clipPath id="p.0"><path d="m0 0l352.5433 0l0 226.71654l-352.5433 0l0 -226.71654z" clip-rule="nonzero"/></clipPath><g clip-path="url(#p.0)"><path fill="#000000" fill-opacity="0.0" d="m0 0l352.5433 0l0 226.71654l-352.5433 0z" fill-rule="evenodd"/><path fill="#cfe2f3" d="m126.708664 0l86.456696 0l0 223.2126l-86.456696 0z" fill-rule="evenodd"/><path fill="#999999" d="m213.16011 0l31.118103 0l0 223.2126l-31.118103 0z" fill-rule="evenodd"/><path fill="#999999" d="m95.59055 0l31.11811 0l0 223.2126l-31.11811 0z" fill-rule="evenodd"/><path fill="#000000" fill-opacity="0.0" d="m244.27821 111.6063l50.771652 0.9448776" fill-rule="evenodd"/><path stroke="#4a86e8" stroke-width="3.0" stroke-linejoin="round" stroke-linecap="butt" d="m244.27821 111.6063l50.771652 0.9448776" fill-rule="evenodd"/><path fill="#000000" fill-opacity="0.0" d="m95.59055 111.6063l-44.8189 0.03149414" fill-rule="evenodd"/><path stroke="#4a86e8" stroke-width="4.0" stroke-linejoin="round" stroke-linecap="butt" d="m95.59055 111.6063l-44.8189 0.03149414" fill-rule="evenodd"/><path fill="#cfe2f3" d="m295.04987 115.51181l0 0c0 -13.011307 12.493713 -23.559052 27.905518 -23.559052l0 0c15.411774 0 27.905518 10.547745 27.905518 23.559052l0 0c0 13.011307 -12.493744 23.559052 -27.905518 23.559052l0 0c-15.411804 0 -27.905518 -10.547745 -27.905518 -23.559052z" fill-rule="evenodd"/><path fill="#000000" d="m320.23883 123.52869l0 -6.28125l-6.234375 0l0 -2.625l6.234375 0l0 -6.234375l2.65625 0l0 6.234375l6.234375 0l0 2.625l-6.234375 0l0 6.28125l-2.65625 0z" fill-rule="nonzero"/><path fill="#cfe2f3" d="m0 115.51181l0 0c0 -13.011307 11.365622 -23.559052 25.385826 -23.559052l0 0c14.020206 0 25.385826 10.547745 25.385826 23.559052l0 0c0 13.011307 -11.36562 23.559052 -25.385826 23.559052l0 0c-14.020205 0 -25.385826 -10.547745 -25.385826 -23.559052z" fill-rule="evenodd"/><path fill="#000000" d="m17.450962 120.35681l0 -2.828125l8.640625 0l0 2.828125l-8.640625 0z" fill-rule="nonzero"/></g></svg>